<svg xmlns="http://www.w3.org/2000/svg" viewBox="0 0 30 30">
  <g id="f6ea4b2e-bc97-4216-b1f6-22fbc0f04fec" data-name="Layer 2">
    <g id="b7bd89d5-587a-46e4-b374-aec215c950f0" data-name="Layer 2">
      <path id="a75ddc95-69fd-4c94-9594-c379736c4aaa" data-name="LiveChat" d="M15,0A15,15,0,0,0,0,15V27.716A2.284,2.284,0,0,0,2.284,30H15A15,15,0,0,0,15,0ZM7.814,17a2,2,0,1,1,2-2A2,2,0,0,1,7.814,17ZM15,17a2,2,0,1,1,2-2A2,2,0,0,1,15,17Zm7.187,0a2,2,0,1,1,2-2A2,2,0,0,1,22.187,17Z" style="fill: #011157"/>
    </g>
  </g>
</svg>
